HIERARCHY
ROOT Hips
{
  OFFSET 5.80788e-005 67.184 3.4734
  CHANNELS 6 Xposition Yposition Zposition Zrotation Xrotation Yrotation
  JOINT Chest
  {
    OFFSET 0 8.7983 -4.7612
    CHANNELS 6 Xposition Yposition Zposition Zrotation Xrotation Yrotation
    JOINT Chest2
    {
      OFFSET 0 8.0291 0.4195
      CHANNELS 6 Xposition Yposition Zposition Zrotation Xrotation Yrotation
      JOINT Chest3
      {
        OFFSET 0 9.9351 -2.2114
        CHANNELS 6 Xposition Yposition Zposition Zrotation Xrotation Yrotation
        JOINT Neck
        {
          OFFSET 0 22.3885 -0.4656
          CHANNELS 6 Xposition Yposition Zposition Zrotation Xrotation Yrotation
          JOINT Head
          {
            OFFSET -0.0001 12.643 3.4389
            CHANNELS 6 Xposition Yposition Zposition Zrotation Xrotation Yrotation
            End Site
            {
              OFFSET 0.0001 17.6655 0.5274
            }
          }
        }
        JOINT LeftCollar
        {
          OFFSET 2.2603 21.606 7.4023
          CHANNELS 6 Xposition Yposition Zposition Zrotation Xrotation Yrotation
          JOINT LeftShoulder
          {
            OFFSET 13.5163 -1.1332 -5.0146
            CHANNELS 6 Xposition Yposition Zposition Zrotation Xrotation Yrotation
            JOINT LeftElbow
            {
              OFFSET -0.0995 -28.05 -0.2431
              CHANNELS 6 Xposition Yposition Zposition Zrotation Xrotation Yrotation
              JOINT LeftWrist
              {
                OFFSET 0.0679 -23.3996 -0.1402
                CHANNELS 6 Xposition Yposition Zposition Zrotation Xrotation Yrotation
                JOINT LeftFinger1
                {
                  OFFSET 0.7932 -9.069 2.5189
                  CHANNELS 6 Xposition Yposition Zposition Zrotation Xrotation Yrotation
                  JOINT LeftFinger11
                  {
                    OFFSET -0.8272 -3.3923 0.5977
                    CHANNELS 6 Xposition Yposition Zposition Zrotation Xrotation Yrotation
                    JOINT LeftFinger12
                    {
                      OFFSET -0.5649 -2.3158 0.4082
                      CHANNELS 6 Xposition Yposition Zposition Zrotation Xrotation Yrotation
                      End Site
                      {
                        OFFSET -0.4919 -1.6479 0.2673
                      }
                    }
                  }
                }
                JOINT LeftFinger2
                {
                  OFFSET 0.9159 -9.2044 0.2193
                  CHANNELS 6 Xposition Yposition Zposition Zrotation Xrotation Yrotation
                  JOINT LeftFinger21
                  {
                    OFFSET 0.0117 -4.1944 -0.0248
                    CHANNELS 6 Xposition Yposition Zposition Zrotation Xrotation Yrotation
                    JOINT LeftFinger22
                    {
                      OFFSET 0.0071 -2.3249 -0.0142
                      CHANNELS 6 Xposition Yposition Zposition Zrotation Xrotation Yrotation
                      End Site
                      {
                        OFFSET -0.1475 -2.0882 0.0028
                      }
                    }
                  }
                }
                JOINT LeftFinger3
                {
                  OFFSET 0.6113 -8.7231 -2.0637
                  CHANNELS 6 Xposition Yposition Zposition Zrotation Xrotation Yrotation
                  JOINT LeftFinger31
                  {
                    OFFSET -0.1927 -3.8059 -0.2383
                    CHANNELS 6 Xposition Yposition Zposition Zrotation Xrotation Yrotation
                    JOINT LeftFinger32
                    {
                      OFFSET -0.1091 -2.1688 -0.1362
                      CHANNELS 6 Xposition Yposition Zposition Zrotation Xrotation Yrotation
                      End Site
                      {
                        OFFSET -0.2358 -1.9176 -0.0906
                      }
                    }
                  }
                }
                JOINT LeftFinger4
                {
                  OFFSET -0.6151 -8.0947 -3.5641
                  CHANNELS 6 Xposition Yposition Zposition Zrotation Xrotation Yrotation
                  JOINT LeftFinger41
                  {
                    OFFSET -0.4882 -2.341 -0.6462
                    CHANNELS 6 Xposition Yposition Zposition Zrotation Xrotation Yrotation
                    JOINT LeftFinger42
                    {
                      OFFSET -0.3575 -1.7167 -0.4742
                      CHANNELS 6 Xposition Yposition Zposition Zrotation Xrotation Yrotation
                      End Site
                      {
                        OFFSET -0.4187 -1.5237 -0.3496
                      }
                    }
                  }
                }
                JOINT LeftFinger0
                {
                  OFFSET -1.42 -1.8761 1.4223
                  CHANNELS 6 Xposition Yposition Zposition Zrotation Xrotation Yrotation
                  JOINT LeftFinger01
                  {
                    OFFSET -1.1471 -3.4929 2.6334
                    CHANNELS 6 Xposition Yposition Zposition Zrotation Xrotation Yrotation
                    JOINT LeftFinger02
                    {
                      OFFSET -0.823 -2.3 1.6571
                      CHANNELS 6 Xposition Yposition Zposition Zrotation Xrotation Yrotation
                      End Site
                      {
                        OFFSET -0.5822 -1.6914 1.1582
                      }
                    }
                  }
                }
              }
            }
          }
        }
        JOINT RightCollar
        {
          OFFSET -2.2603 21.606 7.4023
          CHANNELS 6 Xposition Yposition Zposition Zrotation Xrotation Yrotation
          JOINT RightShoulder
          {
            OFFSET -13.5187 -1.1334 -5.0155
            CHANNELS 6 Xposition Yposition Zposition Zrotation Xrotation Yrotation
            JOINT RightElbow
            {
              OFFSET 0.0994 -28.0499 -0.2431
              CHANNELS 6 Xposition Yposition Zposition Zrotation Xrotation Yrotation
              JOINT RightWrist
              {
                OFFSET -0.0679 -23.3996 -0.1402
                CHANNELS 6 Xposition Yposition Zposition Zrotation Xrotation Yrotation
                JOINT RightFinger1
                {
                  OFFSET -0.7932 -9.0691 2.5189
                  CHANNELS 6 Xposition Yposition Zposition Zrotation Xrotation Yrotation
                  JOINT RightFinger11
                  {
                    OFFSET 0.8272 -3.3923 0.5977
                    CHANNELS 6 Xposition Yposition Zposition Zrotation Xrotation Yrotation
                    JOINT RightFinger12
                    {
                      OFFSET 0.565 -2.3158 0.4082
                      CHANNELS 6 Xposition Yposition Zposition Zrotation Xrotation Yrotation
                      End Site
                      {
                        OFFSET 0.4919 -1.6479 0.2673
                      }
                    }
                  }
                }
                JOINT RightFinger2
                {
                  OFFSET -0.916 -9.2044 0.2193
                  CHANNELS 6 Xposition Yposition Zposition Zrotation Xrotation Yrotation
                  JOINT RightFinger21
                  {
                    OFFSET -0.0117 -4.1944 -0.0248
                    CHANNELS 6 Xposition Yposition Zposition Zrotation Xrotation Yrotation
                    JOINT RightFinger22
                    {
                      OFFSET -0.0071 -2.3249 -0.0142
                      CHANNELS 6 Xposition Yposition Zposition Zrotation Xrotation Yrotation
                      End Site
                      {
                        OFFSET 0.1475 -2.0882 0.0028
                      }
                    }
                  }
                }
                JOINT RightFinger3
                {
                  OFFSET -0.6113 -8.7231 -2.0637
                  CHANNELS 6 Xposition Yposition Zposition Zrotation Xrotation Yrotation
                  JOINT RightFinger31
                  {
                    OFFSET 0.1927 -3.8059 -0.2383
                    CHANNELS 6 Xposition Yposition Zposition Zrotation Xrotation Yrotation
                    JOINT RightFinger32
                    {
                      OFFSET 0.1091 -2.1688 -0.1362
                      CHANNELS 6 Xposition Yposition Zposition Zrotation Xrotation Yrotation
                      End Site
                      {
                        OFFSET 0.2358 -1.9176 -0.0906
                      }
                    }
                  }
                }
                JOINT RightFinger4
                {
                  OFFSET 0.6151 -8.0947 -3.564
                  CHANNELS 6 Xposition Yposition Zposition Zrotation Xrotation Yrotation
                  JOINT RightFinger41
                  {
                    OFFSET 0.4882 -2.341 -0.6462
                    CHANNELS 6 Xposition Yposition Zposition Zrotation Xrotation Yrotation
                    JOINT RightFinger42
                    {
                      OFFSET 0.3574 -1.7166 -0.4742
                      CHANNELS 6 Xposition Yposition Zposition Zrotation Xrotation Yrotation
                      End Site
                      {
                        OFFSET 0.4187 -1.5237 -0.3496
                      }
                    }
                  }
                }
                JOINT RightFinger0
                {
                  OFFSET 1.4199 -1.8761 1.4221
                  CHANNELS 6 Xposition Yposition Zposition Zrotation Xrotation Yrotation
                  JOINT RightFinger01
                  {
                    OFFSET 1.1472 -3.4929 2.6336
                    CHANNELS 6 Xposition Yposition Zposition Zrotation Xrotation Yrotation
                    JOINT RightFinger02
                    {
                      OFFSET 0.8229 -2.3 1.6571
                      CHANNELS 6 Xposition Yposition Zposition Zrotation Xrotation Yrotation
                      End Site
                      {
                        OFFSET 0.5822 -1.6914 1.1582
                      }
                    }
                  }
                }
              }
            }
          }
        }
      }
    }
  }
  JOINT RightHip
  {
    OFFSET -9.412 3.9771 -0.7758
    CHANNELS 6 Xposition Yposition Zposition Zrotation Xrotation Yrotation
    JOINT RightKnee
    {
      OFFSET -0.7531 -40.938 0
      CHANNELS 6 Xposition Yposition Zposition Zrotation Xrotation Yrotation
      JOINT RightAnkle
      {
        OFFSET 0 -40.1986 0
        CHANNELS 6 Xposition Yposition Zposition Zrotation Xrotation Yrotation
        JOINT RightToe
        {
          OFFSET 0 -4.4182 9.239
          CHANNELS 6 Xposition Yposition Zposition Zrotation Xrotation Yrotation
          End Site
          {
            OFFSET 0 0 6.1981
          }
        }
      }
    }
  }
  JOINT LeftHip
  {
    OFFSET 9.4119 3.9773 -0.7758
    CHANNELS 6 Xposition Yposition Zposition Zrotation Xrotation Yrotation
    JOINT LeftKnee
    {
      OFFSET 0.7532 -40.9383 0
      CHANNELS 6 Xposition Yposition Zposition Zrotation Xrotation Yrotation
      JOINT LeftAnkle
      {
        OFFSET 0 -40.1986 0
        CHANNELS 6 Xposition Yposition Zposition Zrotation Xrotation Yrotation
        JOINT LeftToe
        {
          OFFSET 0 -4.4182 9.239
          CHANNELS 6 Xposition Yposition Zposition Zrotation Xrotation Yrotation
          End Site
          {
            OFFSET 0 0 6.1981
          }
        }
      }
    }
  }
}
MOTION
Frames:	4
Frame Time:	0.0333333
-13.84 0.246872 24.3791 89.988 71.994 39.9995 -8.88178e-016 8.7983 -4.7612 -6.28444 8.52867 -2.47859 0 8.0291 0.4195 -12.4006 17.274 -4.05545 0 9.9351 -2.2114 -12.4006 17.274 -4.05547 3.55271e-015 22.3885 -0.4656 -27.4372 -7.54406 4.03977 -0.0001 12.643 3.4389 -0.860266 -8.48168 29.1494 2.2603 21.606 7.4023 -23.3825 15.1236 -25.8251 13.5163 -1.1332 -5.0146 44.3626 1.52532 97.0465 -0.0995 -28.05 -0.2431 -119.982 -17.6882 1.23518 0.0679 -23.3996 -0.1402 -9.09402 20.2652 55.301 0.7932 -9.069 2.5189 -1.84619e-006 2.94447e-006 -3.26041e-006 -0.8272 -3.3923 0.5977 1.49089e-015 3.18055e-015 -2.68359e-015 -0.5649 -2.3158 0.4082 9.07861e-007 -1.0444e-006 4.68703e-006 0.9159 -9.2044 0.2193 -1.84619e-006 2.94447e-006 -3.26041e-006 0.0117 -4.1944 -0.0248 -0.0128069 0.00231562 9.09726e-005 0.0071 -2.3249 -0.0142 2.18472e-006 -9.52003e-007 -6.28718e-007 0.6113 -8.7231 -2.0637 -1.84619e-006 2.94447e-006 -3.26041e-006 -0.1927 -3.8059 -0.2383 -0.0160461 0.00299438 0.000860664 -0.1091 -2.1688 -0.1362 2.18511e-006 -1.23794e-006 -6.28781e-007 -0.6151 -8.0947 -3.5641 -1.84619e-006 2.94447e-006 -3.26041e-006 -0.4882 -2.341 -0.6462 -0.0125938 0.00312535 0.00283712 -0.3575 -1.7167 -0.4742 -5.22967e-006 2.14918e-006 -7.55753e-006 -1.42 -1.8761 1.4223 -1.84619e-006 2.94447e-006 -3.26041e-006 -1.1471 -3.4929 2.6334 1.49089e-015 3.18055e-015 -2.68359e-015 -0.823 -2.3 1.6571 9.07861e-007 -1.0444e-006 4.68703e-006 -2.2603 21.606 7.4023 -2.20264 1.89371 14.9137 -13.5187 -1.1334 -5.0155 -82.0487 -3.68966 20.7073 0.0994 -28.0499 -0.2431 -15.5559 -18.785 -9.65998 -0.0679 -23.3996 -0.1402 -5.99339 -22.7469 10.376 -0.7932 -9.0691 2.5189 8.94531e-016 -7.95139e-016 -0 0.8272 -3.3923 0.5977 1.39149e-015 -1.98785e-015 -3.18055e-015 0.565 -2.3158 0.4082 5.96354e-016 -1.19271e-015 -0 -0.916 -9.2044 0.2193 8.94531e-016 -7.95139e-016 -0 -0.0117 -4.1944 -0.0248 0.012945 0.00231634 -8.62044e-005 -0.0071 -2.3249 -0.0142 -8.94531e-016 -7.95139e-016 -3.18055e-015 -0.6113 -8.7231 -2.0637 8.94531e-016 -7.95139e-016 -0 0.1927 -3.8059 -0.2383 0.0163472 0.00303703 -0.000876423 0.1091 -2.1688 -0.1362 -1.2921e-015 1.19271e-015 -0 0.6151 -8.0947 -3.564 8.94531e-016 -7.95139e-016 -0 0.4882 -2.341 -0.6462 0.0145972 0.00367986 -0.00326701 0.3574 -1.7166 -0.4742 1.78906e-015 3.97569e-016 3.18055e-015 1.4199 -1.8761 1.4221 8.94531e-016 -7.95139e-016 -0 1.1472 -3.4929 2.6336 1.39149e-015 -1.98785e-015 -3.18055e-015 0.8229 -2.3 1.6571 5.96354e-016 -1.19271e-015 -0 -9.412 3.9771 -0.7758 -25.2095 -30.8769 -40.3927 -0.7531 -40.938 3.55271e-015 -3.00547 66.6527 1.4709 -1.77636e-015 -40.1986 0 2.84011 10.6165 5.72377 0 -4.4182 9.239 -1.49089e-016 3.18055e-015 4.47266e-016 9.4119 3.9773 -0.7758 73.1949 -19.2607 94.5942 0.7532 -40.9383 -7.10543e-015 95.612 79.1583 -91.8384 1.77636e-015 -40.1986 7.10543e-015 26.6085 23.1035 -37.6828 -3.55271e-015 -4.4182 9.239 -5.29669e-031 9.54166e-015 3.18055e-015 
-13.84 0.246872 24.3791 89.988 71.994 39.9995 0 8.7983 -4.7612 -6.2797 8.50204 -2.48784 -1.77636e-015 8.0291 0.4195 -12.3894 17.2217 -4.0777 1.77636e-015 9.9351 -2.2114 -12.3894 17.2217 -4.07769 0 22.3885 -0.4656 -27.4259 -7.3789 4.12621 -0.0001 12.643 3.4389 -0.859877 -8.31886 29.1519 2.2603 21.606 7.4023 -23.3019 15.0643 -25.8066 13.5163 -1.1332 -5.0146 44.3415 1.52555 97.0444 -0.0995 -28.05 -0.2431 -120.099 -17.6027 1.19941 0.0679 -23.3996 -0.1402 -8.97516 20.1607 55.2991 0.7932 -9.069 2.5189 -6.20799e-007 -3.1104e-006 -4.07995e-007 -0.8272 -3.3923 0.5977 6.20799e-007 3.1104e-006 4.07995e-007 -0.5649 -2.3158 0.4082 2.55314e-015 3.18055e-015 -6.89534e-016 0.9159 -9.2044 0.2193 -6.20799e-007 -3.1104e-006 -4.07995e-007 0.0117 -4.1944 -0.0248 -0.012841 0.00233232 8.86889e-005 0.0071 -2.3249 -0.0142 -8.41729e-016 0 2.10588e-015 0.6113 -8.7231 -2.0637 -6.20799e-007 -3.1104e-006 -4.07995e-007 -0.1927 -3.8059 -0.2383 -0.0160584 0.0029977 0.000855169 -0.1091 -2.1688 -0.1362 1.23414e-005 -2.70007e-006 1.02048e-005 -0.6151 -8.0947 -3.5641 -6.20799e-007 -3.1104e-006 -4.07995e-007 -0.4882 -2.341 -0.6462 -0.0126081 0.0031284 0.00283546 -0.3575 -1.7167 -0.4742 9.47333e-016 -3.18055e-015 9.69075e-016 -1.42 -1.8761 1.4223 -6.20799e-007 -3.1104e-006 -4.07995e-007 -1.1471 -3.4929 2.6334 6.20799e-007 3.1104e-006 4.07995e-007 -0.823 -2.3 1.6571 2.55314e-015 3.18055e-015 -6.89534e-016 -2.2603 21.606 7.4023 -2.21972 1.87535 15.0479 -13.5187 -1.1334 -5.0155 -82.0487 -3.68964 20.7073 0.0994 -28.0499 -0.2431 -15.5559 -18.7851 -9.66001 -0.0679 -23.3996 -0.1402 -5.99338 -22.7469 10.376 -0.7932 -9.0691 2.5189 -7.57192e-008 -3.05031e-009 1.64447e-006 0.8272 -3.3923 0.5977 -7.57193e-008 4.22751e-007 1.64447e-006 0.565 -2.3158 0.4082 -9.93923e-017 -8.85957e-007 3.18055e-015 -0.916 -9.2044 0.2193 -7.57192e-008 -3.05031e-009 1.64447e-006 -0.0117 -4.1944 -0.0248 0.0129444 0.00231541 -8.77437e-005 -0.0071 -2.3249 -0.0142 2.92638e-006 5.24164e-007 1.14614e-006 -0.6113 -8.7231 -2.0637 -7.57192e-008 -3.05031e-009 1.64447e-006 0.1927 -3.8059 -0.2383 0.0163348 0.00303546 -0.000872111 0.1091 -2.1688 -0.1362 -1.22253e-014 -3.97569e-015 -3.18055e-015 0.6151 -8.0947 -3.564 -7.57192e-008 -3.05031e-009 1.64447e-006 0.4882 -2.341 -0.6462 0.014564 0.00367312 -0.0032586 0.3574 -1.7166 -0.4742 1.88845e-015 7.95139e-016 -3.18055e-015 1.4199 -1.8761 1.4221 -7.57192e-008 -3.05031e-009 1.64447e-006 1.1472 -3.4929 2.6336 -7.57193e-008 4.22751e-007 1.64447e-006 0.8229 -2.3 1.6571 -9.93923e-017 -8.85957e-007 3.18055e-015 -9.412 3.9771 -0.7758 -25.1478 -30.9189 -40.2578 -0.7531 -40.938 0 -3.00558 66.6535 1.47228 0 -40.1986 3.55271e-015 2.93435 10.6165 5.61777 1.77636e-015 -4.4182 9.239 8.19987e-016 6.36111e-015 -1.21756e-015 9.4119 3.9773 -0.7758 73.1954 -19.2598 94.5943 0.7532 -40.9383 0 95.614 79.1583 -91.8413 -3.55271e-015 -40.1986 -7.10543e-015 26.6085 23.1035 -37.6828 -3.55271e-015 -4.4182 9.239 -7.33825e-007 2.69052e-008 -2.94927e-006 
-13.84 0.246872 24.3791 89.988 71.994 39.9995 0 8.7983 -4.7612 -6.27528 8.47723 -2.49641 0 8.0291 0.4195 -12.379 17.173 -4.09838 5.32907e-015 9.9351 -2.2114 -12.379 17.1731 -4.09835 7.10543e-015 22.3885 -0.4656 -27.4156 -7.22505 4.20666 -0.0001 12.643 3.4389 -0.859526 -8.16722 29.1541 2.2603 21.606 7.4023 -23.2269 15.009 -25.7894 13.5163 -1.1332 -5.0146 44.3185 1.5278 97.0423 -0.0995 -28.05 -0.2431 -120.21 -17.5222 1.16481 0.0679 -23.3996 -0.1402 -8.86457 20.0632 55.2975 0.7932 -9.069 2.5189 -2.8948e-015 -6.36111e-015 2.00027e-015 -0.8272 -3.3923 0.5977 2.88859e-015 -3.18055e-015 3.64024e-015 -0.5649 -2.3158 0.4082 1.88224e-015 0 4.36084e-015 0.9159 -9.2044 0.2193 -2.8948e-015 -6.36111e-015 2.00027e-015 0.0117 -4.1944 -0.0248 -0.012778 0.00231474 8.2935e-005 0.0071 -2.3249 -0.0142 2.8948e-015 3.18055e-015 7.0817e-016 0.6113 -8.7231 -2.0637 -2.8948e-015 -6.36111e-015 2.00027e-015 -0.1927 -3.8059 -0.2383 -0.016018 0.00298564 0.000856216 -0.1091 -2.1688 -0.1362 -2.19906e-015 -6.36111e-015 -1.10574e-015 -0.6151 -8.0947 -3.5641 -2.8948e-015 -6.36111e-015 2.00027e-015 -0.4882 -2.341 -0.6462 -0.0126006 0.00311891 0.0028314 -0.3575 -1.7167 -0.4742 -7.70291e-016 6.36111e-015 3.23025e-016 -1.42 -1.8761 1.4223 -2.8948e-015 -6.36111e-015 2.00027e-015 -1.1471 -3.4929 2.6334 2.88859e-015 -3.18055e-015 3.64024e-015 -0.823 -2.3 1.6571 1.88224e-015 0 4.36084e-015 -2.2603 21.606 7.4023 -2.23561 1.85821 15.1728 -13.5187 -1.1334 -5.0155 -82.0488 -3.68962 20.7073 0.0994 -28.0499 -0.2431 -15.5559 -18.7851 -9.66004 -0.0679 -23.3996 -0.1402 -5.99339 -22.7469 10.376 -0.7932 -9.06911 2.5189 7.58686e-008 1.78994e-006 -1.64381e-006 0.8272 -3.3923 0.5977 -2.48481e-015 2.50469e-014 -3.18055e-015 0.565 -2.3158 0.4082 -7.58685e-008 -9.08212e-007 1.64381e-006 -0.916 -9.20441 0.2193 7.58686e-008 1.78994e-006 -1.64381e-006 -0.0117 -4.1944 -0.0248 0.0129204 0.00231042 -8.65711e-005 -0.0071 -2.3249 -0.0142 -6.95746e-016 -3.97569e-016 -6.36111e-015 -0.6113 -8.7231 -2.0637 7.58686e-008 1.78994e-006 -1.64381e-006 0.1927 -3.8059 -0.2383 0.0162993 0.0030268 -0.000869885 0.1091 -2.1688 -0.1362 4.87022e-015 -7.95139e-016 -0 0.6151 -8.0947 -3.564 7.58686e-008 1.78994e-006 -1.64381e-006 0.4882 -2.341 -0.6462 0.0145517 0.00366801 -0.00325789 0.3574 -1.7166 -0.4742 9.93923e-017 -1.19271e-015 6.36111e-015 1.4199 -1.8761 1.4221 7.58686e-008 1.78994e-006 -1.64381e-006 1.1472 -3.4929 2.6336 -2.48481e-015 2.50469e-014 -3.18055e-015 0.8229 -2.3 1.6571 -7.58685e-008 -9.08212e-007 1.64381e-006 -9.412 3.9771 -0.7758 -25.0904 -30.9576 -40.1321 -0.7531 -40.938 0 -3.00549 66.6542 1.47364 1.77636e-015 -40.1986 0 3.02213 10.6164 5.51903 1.77636e-015 -4.4182 9.239 5.54112e-015 0 -1.00635e-014 9.4119 3.9773 -0.7758 73.1949 -19.2607 94.5942 0.7532 -40.9383 7.10543e-015 95.6121 79.1583 -91.8385 -8.88178e-016 -40.1986 -7.10543e-015 26.6085 23.1035 -37.6828 3.55271e-015 -4.4182 9.239 -9.76591e-008 -2.52278e-007 2.2453e-006 
-13.84 0.246872 24.3791 89.988 71.994 39.9995 1.77636e-015 8.7983 -4.7612 -6.27086 8.45244 -2.505 0 8.0291 0.4195 -12.3686 17.1244 -4.11903 3.55271e-015 9.9351 -2.2114 -12.3686 17.1244 -4.11903 3.55271e-015 22.3885 -0.4656 -27.4056 -7.0712 4.28704 -0.0001 12.643 3.4389 -0.859183 -8.01556 29.1564 2.2603 21.606 7.4023 -23.1519 14.9538 -25.7721 13.5163 -1.1332 -5.0146 44.2978 1.52759 97.0403 -0.0995 -28.05 -0.2431 -120.318 -17.4425 1.13215 0.0679 -23.3996 -0.1402 -8.75397 19.9658 55.2961 0.7932 -9.069 2.5189 3.28401e-007 -4.48828e-006 -1.84614e-006 -0.827199 -3.3923 0.5977 -2.83861e-006 1.08892e-006 4.2642e-006 -0.5649 -2.3158 0.4082 1.10995e-005 2.45792e-006 7.37666e-006 0.915899 -9.2044 0.2193 3.28401e-007 -4.48828e-006 -1.84614e-006 0.0117 -4.1944 -0.0248 -0.0128384 0.00233382 9.17134e-005 0.0071 -2.3249 -0.0142 9.93923e-016 9.54166e-015 4.47266e-016 0.6113 -8.7231 -2.0637 3.28401e-007 -4.48828e-006 -1.84614e-006 -0.1927 -3.8059 -0.2383 -0.0160699 0.00300326 0.000865715 -0.1091 -2.1688 -0.1362 -1.37907e-015 -3.18055e-015 7.45443e-016 -0.6151 -8.0947 -3.5641 3.28401e-007 -4.48828e-006 -1.84614e-006 -0.4882 -2.341 -0.6462 -0.0126124 0.00313161 0.00283305 -0.3575 -1.7167 -0.4742 -2.03754e-015 9.54166e-015 -2.55935e-015 -1.42 -1.8761 1.4223 3.28401e-007 -4.48828e-006 -1.84614e-006 -1.1471 -3.4929 2.6334 -2.83861e-006 1.08892e-006 4.2642e-006 -0.822999 -2.3 1.6571 1.10995e-005 2.45792e-006 7.37666e-006 -2.2603 21.606 7.4023 -2.25143 1.84101 15.2977 -13.5187 -1.1334 -5.0155 -82.0488 -3.68961 20.7073 0.0994 -28.0499 -0.2431 -15.5559 -18.7851 -9.66002 -0.0679 -23.3996 -0.1402 -5.99337 -22.7469 10.376 -0.7932 -9.0691 2.5189 7.5709e-006 1.52181e-006 3.88641e-007 0.8272 -3.3923 0.5977 3.97569e-016 1.23361e-006 -0 0.565 -2.3158 0.4082 4.40287e-007 -9.3177e-007 -8.90891e-007 -0.916 -9.2044 0.2193 7.5709e-006 1.52181e-006 3.88641e-007 -0.0117 -4.1944 -0.0248 0.0129725 0.00232164 -8.87637e-005 -0.0071 -2.3249 -0.0142 2.98177e-016 1.19271e-015 3.18055e-015 -0.6113 -8.7231 -2.0637 7.5709e-006 1.52181e-006 3.88641e-007 0.1927 -3.8059 -0.2383 0.016326 0.00303432 -0.000872807 0.1091 -2.1688 -0.1362 1.98785e-015 7.95139e-016 -3.18055e-015 0.6151 -8.0947 -3.564 7.5709e-006 1.52181e-006 3.88641e-007 0.4882 -2.341 -0.6462 0.0145813 0.00367854 -0.00326391 0.3574 -1.7166 -0.4742 1.59028e-015 3.97569e-016 -6.36111e-015 1.4199 -1.8761 1.4221 7.5709e-006 1.52181e-006 3.88641e-007 1.1472 -3.4929 2.6336 3.97569e-016 1.23361e-006 -0 0.8229 -2.3 1.6571 4.40287e-007 -9.3177e-007 -8.90891e-007 -9.412 3.9771 -0.7758 -25.0327 -30.9964 -40.0063 -0.7531 -40.938 7.10543e-015 -3.00569 66.6551 1.47499 0 -40.1986 3.55271e-015 3.10991 10.6162 5.42033 1.77636e-015 -4.4182 9.239 -1.16786e-015 -9.54166e-015 1.22998e-015 9.4119 3.9773 -0.7758 73.1949 -19.2607 94.5942 0.7532 -40.9383 0 95.6123 79.1583 -91.8388 1.77636e-015 -40.1986 0 26.6085 23.1035 -37.6828 0 -4.4182 9.239 -1.25308e-006 4.70555e-006 1.10385e-006 
